<svg xmlns="http://www.w3.org/2000/svg" viewBox="0 0 512 512">
  <rect width="512" height="512" rx="96" fill="#25D366"/>
  <g transform="translate(256,256)">
    <!-- WhatsApp phone icon simplified -->
    <path d="M0-140c-77.3 0-140 62.7-140 140 0 24.7 6.4 48 18.6 69l-19.6 72 73.8-19.4c20 11 42.8 16.8 67.2 16.8 77.3 0 140-62.7 140-140S77.3-140 0-140zm0 256c-21.4 0-42.4-5.8-60.6-16.8l-4.4-2.6-44.8 11.8 12-43.6-2.8-4.6C-112.4 42-118.4 21.6-118.4 0c0-65.2 53.2-118.4 118.4-118.4S118.4-65.2 118.4 0 65.2 118.4 0 116z" fill="white"/>
    <!-- Bookmark ribbon -->
    <rect x="50" y="-100" width="60" height="100" rx="4" fill="white" opacity="0.9"/>
    <polygon points="50,0 80,-20 110,0" fill="#25D366"/>
  </g>
</svg>
